Coordinates
version=1
nRows=8
nColumns=63
inDegrees=yes

Units are S.I. units (second, meters, Newtons, ...)
If the header above contains a line with 'inDegrees', this indicates whether rotational values are in degrees (yes) or radians (no).

endheader
time	pelvis_tilt	pelvis_list	pelvis_rotation	pelvis_tx	pelvis_ty	pelvis_tz	hip_flexion_r	hip_adduction_r	hip_rotation_r	knee_angle_r	knee_angle_r_beta	ankle_angle_r	subtalar_angle_r	mtp_angle_r	hip_flexion_l	hip_adduction_l	hip_rotation_l	knee_angle_l	knee_angle_l_beta	ankle_angle_l	subtalar_angle_l	mtp_angle_l	L5_S1_Flex_Ext	L5_S1_Lat_Bending	L5_S1_axial_rotation	L4_L5_Flex_Ext	L4_L5_Lat_Bending	L4_L5_axial_rotation	L3_L4_Flex_Ext	L3_L4_Lat_Bending	L3_L4_axial_rotation	L2_L3_Flex_Ext	L2_L3_Lat_Bending	L2_L3_axial_rotation	L1_L2_Flex_Ext	L1_L2_Lat_Bending	L1_L2_axial_rotation	L1_T12_Flex_Ext	L1_T12_Lat_Bending	L1_T12_axial_rotation	Abs_r3	Abs_r2	Abs_r1	Abs_t1	Abs_t2	neck_flexion	neck_bending	neck_rotation	arm_flex_r	arm_add_r	arm_rot_r	elbow_flex_r	pro_sup_r	wrist_flex_r	wrist_dev_r	arm_flex_l	arm_add_l	arm_rot_l	elbow_flex_l	pro_sup_l	wrist_flex_l	wrist_dev_l
      3.00000000	     -0.64298262	     -6.01924924	     94.18448653	      0.12934354	      0.64600991	      0.77669360	     14.25218881	     -2.95060164	     -4.95953961	     22.77915118	      0.39757119	     40.54732970	     -0.79643131	      0.00000000	      9.80023059	      4.11569899	      2.29096460	     11.65044944	      0.20333870	     34.81450306	     -0.95679427	      0.00000000	      0.07925783	     -0.15504022	      0.42186643	      0.14718972	     -0.20620350	      0.44823308	      0.13021269	     -0.37696480	      0.44823308	      0.09058377	     -0.37696480	      0.36913313	      0.07359882	     -0.31615802	      0.34276648	      0.04528792	     -0.24015730	      0.31639982	      0.56613076	     -1.75384600	      2.34629453	      0.00000000	      0.00000000	     18.37580064	     -0.95390610	      5.25036791	      2.41581592	    -10.76023834	     36.03848310	     52.02587209	     51.36698493	      3.68446841	     17.42981186	     14.95947986	     -6.26664726	     63.13100210	     45.23586331	     83.10936496	     -4.30971075	     -0.31875646
      3.01694915	     -0.76985705	     -5.80203710	     94.36740733	      0.12910206	      0.64622547	      0.77639431	     13.91792992	     -3.15579944	     -5.35314009	     22.70351720	      0.39625113	     40.61643750	     -0.28973351	      0.00000000	      9.49845943	      4.28287812	      2.56355585	     11.50510055	      0.20080189	     34.88085012	     -0.89810287	      0.00000000	      0.06071828	     -0.17907851	      0.33471624	      0.11275992	     -0.23817442	      0.35563600	      0.09975407	     -0.43541149	      0.35563600	      0.06939493	     -0.43541149	      0.29287671	      0.05638300	     -0.36517690	      0.27195694	      0.03469443	     -0.27739261	      0.25103718	      0.43370463	     -2.02577194	      1.86159131	      0.00000000	      0.00000000	     17.14231746	     -0.27201771	      5.74937609	      3.21088876	    -10.70382816	     37.01315627	     51.59773505	     52.46758391	      4.16404817	     17.96589189	     15.04434916	     -6.53247432	     62.84336572	     45.35611717	     84.84739802	     -3.86714053	     -0.45387540
      3.03389831	     -0.75458116	     -5.77668986	     94.34177658	      0.12891054	      0.64599342	      0.77634468	     13.89774208	     -3.13865712	     -5.31614716	     22.70280857	      0.39623876	     40.58983370	     -0.18583895	      0.00000000	      9.47369203	      4.29494586	      2.74312871	     11.43931028	      0.19965363	     35.06145496	     -0.82493626	      0.00000000	      0.05698597	     -0.18279861	      0.33572315	      0.10582865	     -0.24312216	      0.35670584	      0.09362225	     -0.44445655	      0.35670584	      0.06512927	     -0.44445655	      0.29375775	      0.05291717	     -0.37276293	      0.27277506	      0.03256178	     -0.28315505	      0.25179236	      0.40704510	     -2.06785447	      1.86719142	      0.00000000	      0.00000000	     16.87754839	     -0.21571975	      5.78559260	      3.47388222	    -10.70990679	     37.07249469	     51.66298252	     52.56102341	      4.21857363	     17.96683491	     15.10622329	     -6.61540327	     62.71708181	     45.46424139	     84.78520164	     -3.84810499	     -0.48764536
      3.05084746	     -0.77189380	     -5.70483403	     94.44175304	      0.12849041	      0.64597227	      0.77578356	     13.70798845	     -3.33888351	     -6.17746665	     22.64909475	      0.39530128	     40.81766026	      1.08530133	      0.00000000	      9.20397666	      4.42770700	      3.80730095	     11.03645693	      0.19262251	     34.91680491	     -1.71714209	      0.00000000	      0.05727609	     -0.18755198	      0.17528746	      0.10636742	     -0.24944413	      0.18624293	      0.09409888	     -0.45601388	      0.18624293	      0.06546084	     -0.45601388	      0.15337653	      0.05318657	     -0.38245600	      0.14242106	      0.03272756	     -0.29051802	      0.13146560	      0.40911735	     -2.12162551	      0.97489628	      0.00000000	      0.00000000	     16.26754727	      0.47508711	      7.06694640	      4.57246811	    -10.80239294	     38.78769508	     51.01594590	     56.40339152	      5.60478200	     16.64934963	     14.20475757	     -6.89048185	     60.44170271	     45.82571057	     82.88333326	     -2.61080619	     -0.28974392
      3.06779661	     -0.75006054	     -5.75345457	     94.39717153	      0.12840004	      0.64575859	      0.77580635	     13.75832897	     -3.30253557	     -6.09587221	     22.63913920	      0.39512752	     40.77399803	      1.16856664	      0.00000000	      9.26680789	      4.41808937	      3.95387916	     10.95931066	      0.19127605	     35.04322623	     -1.64255216	      0.00000000	      0.05635279	     -0.19230890	      0.17695348	      0.10465277	     -0.25577083	      0.18801307	      0.09258200	     -0.46757985	      0.18801307	      0.06440561	     -0.46757985	      0.15483429	      0.05232920	     -0.39215631	      0.14377470	      0.03219999	     -0.29788648	      0.13271511	      0.40252237	     -2.17543672	      0.98416217	      0.00000000	      0.00000000	     16.18307139	      0.47895827	      7.11429214	      4.77336938	    -10.80559476	     38.75974178	     51.13640416	     56.44583073	      5.63687845	     16.60958802	     14.25223321	     -6.96569207	     60.33616629	     45.83507226	     82.80258597	     -2.63118028	     -0.32187886
      3.08474576	     -0.71658618	     -5.91916858	     94.15453000	      0.12833026	      0.64544720	      0.77511064	     13.92074592	     -3.27122332	     -5.97073585	     22.69117041	      0.39603563	     40.77745746	      1.46755506	      0.00000000	      9.24972583	      4.40015712	      4.15200718	     10.59317819	      0.18488584	     35.05699502	     -1.79323226	      0.00000000	      0.08346059	     -0.18396828	      0.12988888	      0.15499466	     -0.24467781	      0.13800693	      0.13711740	     -0.44730047	      0.13800693	      0.09538711	     -0.44730047	      0.11365277	      0.07750150	     -0.37514811	      0.10553471	      0.04768938	     -0.28496686	      0.09741666	      0.59615064	     -2.08108593	      0.72240297	      0.00000000	      0.00000000	     15.93023830	      0.74585469	      8.61488767	      5.14889675	    -10.84934450	     39.01463662	     50.91328091	     63.77567917	      7.01894297	     14.54485865	     13.57393736	     -7.06943117	     59.40324965	     45.93284007	     76.77698239	     -1.91178160	     -0.74542683
      3.10169492	     -0.66713178	     -6.21191038	     94.15966483	      0.12819261	      0.64494611	      0.77494399	     14.25194442	     -3.25602313	     -5.93451512	     22.81789878	      0.39824746	     40.81234267	      1.49996824	      0.00000000	      9.70168259	      4.35727368	      3.98827934	     10.82492403	      0.18893057	     35.32314196	     -1.39040419	      0.00000000	      0.11696493	     -0.18791752	      0.14329774	      0.21721558	     -0.24993030	      0.15225385	      0.19216169	     -0.45690265	      0.15225385	      0.13367922	     -0.45690265	      0.12538552	      0.10861364	     -0.38320140	      0.11642941	      0.06683376	     -0.29108423	      0.10747331	      0.83546882	     -2.12576052	      0.79697904	      0.00000000	      0.00000000	     15.90098667	      0.74435134	      8.57349868	      5.11210429	    -10.92028057	     39.15822351	     51.02729869	     63.24613205	      6.85744744	     14.08346853	     13.51968606	     -7.11889783	     59.40430432	     46.08960603	     75.41663245	     -1.85123762	     -0.39448517
      3.11864407	     -0.63065568	     -6.28970580	     94.15340390	      0.12789627	      0.64482345	      0.77450508	     14.21719955	     -3.22262474	     -5.87735637	     22.69573556	      0.39611531	     40.72896104	      1.36570831	      0.00000000	      9.74780240	      4.30278274	      3.53773400	     10.75285754	      0.18767277	     35.44703918	     -0.80213950	      0.00000000	      0.11697007	     -0.18597731	      0.15586831	      0.21722511	     -0.24734982	      0.16561008	      0.19217012	     -0.45218522	      0.16561008	      0.13368509	     -0.45218522	      0.13638477	      0.10861840	     -0.37924492	      0.12664300	      0.06683670	     -0.28807885	      0.11690123	      0.83550549	     -2.10381248	      0.86689276	      0.00000000	      0.00000000	     15.69541286	      0.66205933	      8.78339302	      5.02342711	    -11.10850165	     39.36812945	     51.29223848	     62.67465799	      6.66135276	     13.61034431	     13.39789148	     -7.12141443	     59.25480071	     46.28675654	     73.41517088	     -1.64777751	     -0.03333862
